<svg width="61" height="42" viewBox="0 0 61 42" fill="none" xmlns="http://www.w3.org/2000/svg">
<g filter="url(#filter0_d_536_8168)">
<path d="M53.4711 27.3897C53.5636 27.1296 53.4278 26.8436 53.1677 26.751L48.9282 25.2421C48.668 25.1495 48.3821 25.2853 48.2895 25.5455C48.1969 25.8056 48.3327 26.0916 48.5929 26.1842L52.3613 27.5255L51.02 31.2939C50.9274 31.554 51.0632 31.84 51.3234 31.9326C51.5835 32.0252 51.8695 31.8894 51.9621 31.6292L53.4711 27.3897ZM42.2066 22.7252L42.6216 22.4464L42.2066 22.7252ZM8.46205 4.80893C8.35652 4.55374 8.06411 4.43242 7.80893 4.53795C7.55374 4.64347 7.43242 4.93589 7.53795 5.19107L8.46205 4.80893ZM52.7855 26.7704C51.167 27.5392 49.5254 27.7511 47.8648 27.1605C46.1899 26.5648 44.423 25.127 42.6216 22.4464L41.7916 23.0041C43.6613 25.7865 45.5808 27.4095 47.5297 28.1027C49.4928 28.8009 51.4123 28.5298 53.2145 27.6737L52.7855 26.7704ZM42.6216 22.4464C39.1771 17.3205 35.792 14.9006 32.5887 13.9633C29.393 13.0282 26.4619 13.5953 23.9947 14.2665L24.2572 15.2314C26.6767 14.5732 29.3852 14.0679 32.3079 14.923C35.2229 15.776 38.4348 18.0089 41.7916 23.0041L42.6216 22.4464ZM23.9947 14.2665C22.7203 14.6132 21.5359 15.0377 20.2714 15.2903C19.0354 15.5371 17.8132 15.595 16.5772 15.2129C14.1132 14.4512 11.3808 11.867 8.46205 4.80893L7.53795 5.19107C10.4832 12.3133 13.3704 15.2682 16.2818 16.1683C17.7334 16.617 19.1378 16.5364 20.4673 16.2709C21.7683 16.0111 23.0883 15.5494 24.2572 15.2314L23.9947 14.2665Z" fill="#FA7A7A"/>
</g>
<defs>
<filter id="filter0_d_536_8168" x="0.499878" y="0.499878" width="60.0002" height="41.4618" filterUnits="userSpaceOnUse" color-interpolation-filters="sRGB">
<feFlood flood-opacity="0" result="BackgroundImageFix"/>
<feColorMatrix in="SourceAlpha" type="matrix" values="0 0 0 0 0 0 0 0 0 0 0 0 0 0 0 0 0 0 127 0" result="hardAlpha"/>
<feOffset dy="3"/>
<feGaussianBlur stdDeviation="3.5"/>
<feColorMatrix type="matrix" values="0 0 0 0 0.921569 0 0 0 0 0.490196 0 0 0 0 0.490196 0 0 0 1 0"/>
<feBlend mode="normal" in2="BackgroundImageFix" result="effect1_dropShadow_536_8168"/>
<feBlend mode="normal" in="SourceGraphic" in2="effect1_dropShadow_536_8168" result="shape"/>
</filter>
</defs>
</svg>
