<?xml version="1.0" encoding="utf-8"?>
<svg version="1.0" xmlns="http://www.w3.org/2000/svg" width="512.000000pt" height="512.000000pt" viewBox="0 0 512.000000 512.000000" preserveAspectRatio="xMidYMid meet">
  <g transform="translate(0.000000,512.000000) scale(0.100000,-0.100000)" fill="#000000" stroke="none">
    <path d="M 883 4946 C 802 4926 721 4880 658 4816 C 603 4761 584 4728 379 4318 L 160 3880 L 160 3631 C 160 3296 180 3198 281 3043 C 321 2982 450 2850 470 2850 C 477 2850 480 2434 480 1666 L 480 482 L 481.183 165 L 2560 165 L 4641.326 165 L 4640 482 L 4640 1666 C 4640 2434 4643 2850 4650 2850 C 4670 2850 4799 2982 4839 3043 C 4940 3198 4960 3296 4960 3630 L 4960 3878 L 4749 4302 C 4633 4534 4521 4748 4499 4776 C 4452 4838 4362 4903 4283 4933 L 4225 4955 L 2580 4957 C 1286 4958 924 4956 883 4946 Z M 4177 4629 C 4192 4623 4216 4609 4229 4597 C 4242 4585 4317 4446 4396 4288 L 4540 4000 L 2560 4000 L 909.678 4000 L 580 4000 L 724 4288 C 803 4446 878 4585 891 4597 C 904 4609 926 4623 940 4629 C 976 4643 4139 4644 4177 4629 Z M 1278 3513 C 1275 3349 1274 3344 1243 3278 C 1199 3185 1143 3127 1052 3082 C 980 3047 971 3045 881 3045 C 794 3045 779 3048 718 3077 C 625 3121 567 3177 522 3268 L 485 3344 L 481 3512 L 478 3680 L 1282 3680 L 1278 3513 Z M 2398 3513 C 2395 3349 2394 3344 2363 3278 C 2319 3185 2263 3127 2172 3082 C 2100 3047 2091 3045 2001 3045 C 1914 3045 1899 3048 1838 3077 C 1745 3121 1687 3177 1642 3268 L 1605 3344 L 1601 3512 L 1598 3680 L 2000 3680 L 2402 3680 L 2398 3513 Z M 3518 3513 C 3515 3349 3514 3344 3483 3278 C 3439 3185 3383 3127 3292 3082 C 3220 3047 3211 3045 3121 3045 C 3034 3045 3019 3048 2958 3077 C 2865 3121 2807 3177 2762 3268 L 2725 3344 L 2721 3512 L 2718 3680 L 3120 3680 L 3522 3680 L 3518 3513 Z M 4638 3513 C 4635 3349 4634 3344 4603 3278 C 4559 3185 4503 3127 4412 3082 C 4340 3047 4331 3045 4241 3045 C 4154 3045 4139 3048 4078 3077 C 3985 3121 3927 3177 3882 3268 L 3845 3344 L 3841 3512 L 3838 3680 L 4240 3680 L 4642 3680 L 4638 3513 Z M 1510 2916 C 1589 2842 1680 2788 1788 2752 C 1855 2729 1882 2726 2000 2726 C 2118 2726 2145 2729 2212 2752 C 2320 2788 2411 2842 2491 2917 L 2560 2982 L 2629 2917 C 2709 2842 2800 2788 2908 2752 C 2975 2729 3002 2726 3120 2726 C 3238 2726 3265 2729 3332 2752 C 3440 2788 3531 2842 3611 2917 L 3680 2982 L 3754 2913 C 3836 2836 3952 2771 4055 2744 C 4088 2736 4161 2726 4218 2723 L 4320 2717 L 4320 1599 L 4320 480 L 3840 480 L 3360 480 L 3360 988 C 3360 1546 3359 1558 3299 1671 C 3261 1741 3173 1828 3102 1864 C 2998 1917 2967 1920 2560 1920 C 2153 1920 2122 1917 2018 1864 C 1947 1828 1859 1741 1821 1671 C 1761 1558 1760 1546 1760 988 L 1760 480 L 1280 480 L 800 480 L 800 1598 L 800 2715 L 893 2716 C 1070 2718 1228 2782 1357 2904 C 1400 2946 1437 2979 1439 2980 C 1441 2980 1473 2951 1510 2916 Z M 2966 1574 C 2981 1563 3003 1541 3014 1526 C 3034 1499 3035 1486 3038 989 L 3041 480 L 2560 480 L 2080 480 L 2080 974 C 2080 1300 2084 1478 2091 1497 C 2097 1512 2111 1536 2123 1549 C 2169 1599 2179 1600 2572 1597 C 2925 1595 2940 1594 2966 1574 Z"/>
  </g>
</svg>